<svg width="500" height="500" viewBox="0 0 500 500" fill="none" xmlns="http://www.w3.org/2000/svg">
<rect x="226.5" y="135.5" width="195" height="295" rx="17.5" stroke="#4A47F3" stroke-width="5"/>
<path d="M345.414 305.281H302.523L292.891 332H278.969L318.062 229.625H329.875L369.039 332H355.188L345.414 305.281ZM306.602 294.172H341.406L323.969 246.289L306.602 294.172Z" fill="#4A47F3"/>
<path fill-rule="evenodd" clip-rule="evenodd" d="M97 72H257C265.284 72 272 78.7157 272 87V133H277V87C277 75.9543 268.046 67 257 67H97C85.9543 67 77 75.9543 77 87V347C77 358.046 85.9543 367 97 367H224V362H97C88.7157 362 82 355.284 82 347V87C82 78.7157 88.7157 72 97 72Z" fill="#4A47F3"/>
<path d="M198.414 239.281H155.523L145.891 266H131.969L171.062 163.625H182.875L222.039 266H208.188L198.414 239.281ZM159.602 228.172H194.406L176.969 180.289L159.602 228.172Z" fill="#4A47F3"/>
</svg>
